<svg xmlns="http://www.w3.org/2000/svg" viewBox="360 190 640 640">
  <title>Marviko favicon</title>
  <g fill="#2B2B2B">
    <path d="M677.4,250.9l262.5,178.5l-55.5,0.5l-207-136l-204,135l-2,1h-55.2l4.2-3L677.4,250.9z"/>
    <polygon points="438.9,740.9 525.6,740.9 525.6,490.8 438.9,453.1"/>
    <polygon points="918.3,740.9 831.5,740.9 831.5,490.8 918.3,453.1"/>
    <polygon points="545.9,489.8 545.9,740.9 598.9,740.9 598.9,605.9 677.4,658.9 756.9,606.4 756.9,740.9 809.4,740.9 809.4,489.9 678.4,584.9"/>
    <rect x="622.5" y="439.4" width="49" height="49"/>
    <rect x="622" y="381.9" width="49" height="49"/>
    <rect x="680.2" y="381.9" width="49" height="49"/>
    <rect x="680.7" y="438.9" width="49" height="49"/>
  </g>
</svg>