<?xml version="1.0" encoding="utf-8"?>
<!-- Generator: Adobe Illustrator 23.0.0, SVG Export Plug-In . SVG Version: 6.00 Build 0)  -->
<svg version="1.1" id="Layer_6" xmlns="http://www.w3.org/2000/svg" xmlns:xlink="http://www.w3.org/1999/xlink" x="0px" y="0px"
	 viewBox="0 0 1345 1169" style="enable-background:new 0 0 1345 1169;" xml:space="preserve">
<style type="text/css">
	.st0{fill:#2B2B2B;}
	.st1{fill-rule:evenodd;clip-rule:evenodd;fill:#2B2B2B;}
	.st2{fill:url(#SVGID_1_);}
	.st3{fill:url(#SVGID_2_);}
	.st4{fill:url(#SVGID_3_);}
	.st5{fill:url(#SVGID_4_);}
	.st6{fill:url(#SVGID_5_);}
	.st7{fill:url(#SVGID_6_);}
	.st8{fill:url(#SVGID_7_);}
</style>
<g>
	<path class="st0" d="M677.4,250.9l262.5,178.5l-55.5,0.5l-207-136l-204,135l-2,1h-55.2l4.2-3L677.4,250.9z"/>
	<path class="st0" d="M435.4,806.9h27l47.5,106.5l-31,0.5l-8.5-21h-43l-1.5,1.5l-7,19.5h-29.5h-1.6L435.4,806.9z M448.9,839.9
		l-12,30v1h25l-10-25L448.9,839.9z"/>
	<path class="st0" d="M524.9,806.9l59.5,0c3.6,0,7.3-0.2,8.7,0.8c4.9,0.4,16.9,7.9,22.8,15.7c5.7,6.6,7.7,16.9,6,31
		c-1.7,8.3-5.2,14.8-10.5,19.5c-4.9,4.7-11.3,8.1-19,10l-25.6,1.1l-3.4-0.1h-9.5v1.5v27.5h-29v-1.5v-104V806.9z M553.9,830.9v31h2
		h18.8c2.8,0,6.7-0.7,9.2-1.8l4-1.8c0.8-0.3,1.5-0.7,2.1-1.3c1.5-1.5,2.2-2.1,2.9-4.4c0.4-1.4,0.9-4.1,0.6-5.5l-0.9-4.6
		c-0.5-2.3-1.5-4.4-3.1-6.5l-1.7-1.5c-1.3-1.6-4.6-2.7-6.1-3l-2.8-0.6H553.9z"/>
	<path class="st0" d="M640.9,806.9h63.5c0.7,0,7.4,0.8,8.1,0.9l5.9,2.1c6,2.3,10.8,5.8,14.5,10.5c3.9,4.5,5.2,11.5,4,21
		c-1.8,6.5-5.3,11.4-10.5,14.5l-4.5,2.5c6.9,2.1,12.3,5.7,16,11l2.2,4.3c0.6,1.1,0.9,2.3,1,3.5l0.7,8.3c0.1,1.2,0,2.4-0.4,3.6
		l-1.5,5c-0.6,2.2-1.7,4.2-3.2,5.9l-3,3.4c-0.8,1-1.9,1.8-3,2.4l-10.2,5.5c4.1-2.2-3.2,1.3-3.9,1.4l-6.1,0.9
		c-0.7,0.1-1.4,0.2-2.2,0.2h-67.4V808.4V806.9z M669.9,830.9v19h28.6c0.9,0,1.9-0.2,2.7-0.5l3.7-1.5c2.7-1.1,3.9-3.8,3.5-8
		c-0.2-1.8-1-3.5-2.3-4.8l-1.6-1.6c-1.6-1.6-3.9-2.6-6.2-2.6H669.9z M669.9,870.9v20h31.3c1.1,0,2.2-0.2,3.3-0.5l1.1-0.4
		c2.2-0.7,4-2.1,5.3-4l0.3-0.4c1.1-1.7,1.5-3.8,1.1-5.8l-0.6-2.8c-0.4-1.9-1.6-3.6-3.3-4.6l-2.3-1.4H669.9z"/>
	<path class="st1" d="M1110.4,827.8c-15.3-15.3-33.8-22.3-55.5-21c-24.2,3.4-41.1,16.4-50.5,39c-6.4,37.6,8.7,61.5,45.5,71.5
		c23.8,3.3,43.9-3.5,60.5-20.5C1127,873.7,1127,850.7,1110.4,827.8z M1092.1,870.6c-6.8,17.7-19.6,24.8-38.5,21.5
		c-16.4-6-23.9-17.9-22.5-35.5c2.8-11.3,9.7-19,20.5-23c5.6-0.8,11.3-1.1,17-1C1087.8,838.1,1095.7,850.8,1092.1,870.6z"/>
	<polygon class="st0" points="957.9,854.4 982.9,828.4 1003.4,806.9 969.4,806.9 926.4,850.9 925.8,806.9 896.9,806.9 896.9,913.9 
		926,913.9 925.9,884.4 937.4,872.9 971.4,913.9 1005.9,913.9 	"/>
	<path class="st0" d="M868.4,806.9h-26l-50.5,62.5v-62.5h-29l0.3,107h26.3c0,0,49.5-63.5,51-63v63h28.5v-107H868.4z"/>
	<path class="st0" d="M278.9,854.4l29,39c1.1,1.1,1.2,1.8,3.5,1.7c0.8,0,1.2-0.4,1.6-0.9l29.3-41.6v0.6v1.6v47.4v10.2v1.6h28.7
		V806.7h-27.3c-4.1,6-32,46.9-33.7,46.2l-31.5-46h-27.5v107h28V854.4z"/>
	<linearGradient id="SVGID_1_" gradientUnits="userSpaceOnUse" x1="482.2507" y1="740.9197" x2="482.2507" y2="453.1369">
		<stop  offset="1.955307e-02" style="stop-color:#B44A15"/>
		<stop  offset="0.8994" style="stop-color:#FE8926"/>
	</linearGradient>
	<polygon class="st2" points="438.9,740.9 525.6,740.9 525.6,490.8 438.9,453.1 	"/>
	
		<linearGradient id="SVGID_2_" gradientUnits="userSpaceOnUse" x1="145.9302" y1="740.9197" x2="145.9302" y2="501.6039" gradientTransform="matrix(-1 0 0 1 1020.7872 0)">
		<stop  offset="1.955307e-02" style="stop-color:#651606"/>
		<stop  offset="0.8994" style="stop-color:#D1601C"/>
	</linearGradient>
	<polygon class="st3" points="918.3,740.9 831.5,740.9 831.5,490.8 918.3,453.1 	"/>
	<linearGradient id="SVGID_3_" gradientUnits="userSpaceOnUse" x1="573.9156" y1="491.8452" x2="806.4465" y2="768.9646">
		<stop  offset="0" style="stop-color:#FE8929"/>
		<stop  offset="0.7172" style="stop-color:#963915"/>
	</linearGradient>
	<polygon class="st4" points="545.9,489.8 545.9,740.9 598.9,740.9 598.9,605.9 677.4,658.9 756.9,606.4 756.9,740.9 809.4,740.9 
		809.4,489.9 678.4,584.9 	"/>
	<linearGradient id="SVGID_4_" gradientUnits="userSpaceOnUse" x1="664.8608" y1="453.5738" x2="606.8932" y2="487.0414">
		<stop  offset="0" style="stop-color:#EA842A"/>
		<stop  offset="6.101733e-02" style="stop-color:#EE8A2B"/>
		<stop  offset="0.2531" style="stop-color:#F7972C"/>
		<stop  offset="0.501" style="stop-color:#FC9F2D"/>
		<stop  offset="1" style="stop-color:#FEA12D"/>
	</linearGradient>
	<rect x="622.5" y="439.4" class="st5" width="49" height="49"/>
	<linearGradient id="SVGID_5_" gradientUnits="userSpaceOnUse" x1="664.3289" y1="396.0738" x2="606.3613" y2="429.5414">
		<stop  offset="0" style="stop-color:#C26732"/>
		<stop  offset="3.248209e-02" style="stop-color:#C76B33"/>
		<stop  offset="0.1757" style="stop-color:#DA7836"/>
		<stop  offset="0.3447" style="stop-color:#E78138"/>
		<stop  offset="0.5622" style="stop-color:#EF863A"/>
		<stop  offset="1" style="stop-color:#F1883A"/>
	</linearGradient>
	<rect x="622" y="381.9" class="st6" width="49" height="49"/>
	<linearGradient id="SVGID_6_" gradientUnits="userSpaceOnUse" x1="725.3908" y1="394.4442" x2="638.5515" y2="444.5809">
		<stop  offset="0" style="stop-color:#9F4220"/>
		<stop  offset="0.1025" style="stop-color:#B35128"/>
		<stop  offset="0.2353" style="stop-color:#C65F2E"/>
		<stop  offset="0.392" style="stop-color:#D36933"/>
		<stop  offset="0.5939" style="stop-color:#DB6E36"/>
		<stop  offset="1" style="stop-color:#DD7037"/>
	</linearGradient>
	<rect x="680.2" y="381.9" class="st7" width="49" height="49"/>
	<linearGradient id="SVGID_7_" gradientUnits="userSpaceOnUse" x1="731.5841" y1="448.1818" x2="642.2803" y2="499.7414">
		<stop  offset="0" style="stop-color:#9F4220"/>
		<stop  offset="0.1738" style="stop-color:#B45627"/>
		<stop  offset="0.3981" style="stop-color:#C7682D"/>
		<stop  offset="0.6251" style="stop-color:#D37331"/>
		<stop  offset="0.8567" style="stop-color:#D77732"/>
	</linearGradient>
	<rect x="680.7" y="438.9" class="st8" width="49" height="49"/>
</g>
</svg>
